<?xml version="1.0" encoding="UTF-8"?>
<svg version="1.1" viewBox="0 0 942 1000" width="942" height="1003" xmlns="http://www.w3.org/2000/svg">
<path transform="translate(0)" d="m0 0h942v1e3h-942z" fill="#FEFEFE"/>
<path transform="translate(461)" d="m0 0h24l24 2 18 3 22 5 23 8 19 9 16 10 11 9 11 10 11 14 8 14 6 14 4 16 2 17v5l4 2 5 4 6 10 5 15 2 12v6l14 1 29 6 31 9 23 8 24 10 16 8 17 9 15 10 14 11 13 13 9 13 6 13 2 8v19l-5 16-7 12-7 9-9 10-12 10-19 12-18 10h-2l-3 9-5 18-8 16-8 11-9 10-7 7-10 7-16 8-13 3h-15l-12-3-11-5-3 14-14 43v5l11 12 11 11 11 16 2 3 3-1h7l18 8 30 16 16 10 17 13 10 9 7 6 7 8 12 15 8 13 8 16 8 21 8 30 8 45 5 34-5 5h-7l-3-4-4-21-6-37-7-33-7-24-8-19-9-16-9-12-9-10-12-12-13-10-18-12-19-11-22-12-7-3 16 39 10 27 3 13-1 7-8 9-15 10-13 9-7 6-7 8-19 19-11 9-15 13-11 9-15 13-11 9-12 11-8 7-12 11-29 29-7 8-13 16-7 9h-6l-2-2 1-8 6-10 12-13 7-8 19-19 8-7 9-9 8-7 15-14 10-9 12-11 8-7 10-9 10-8 13-11 11-9 5-5 2-11 12-8 17-12 13-8 5-3-1-9-6-18-13-31-17-35-11-18-5-5 2 17v9l-10 6-3 24-4 26-6 25-6 20-10 23-10 19-12 18-10 13-9 11-10 11-7 8-15 16-7 7-7 8-11 12-13 17-8 13-5 11-5 13 2 11 8 30 1 11-6 10-9 10-7 8-11 11-8 7-11 9-5-1-13-12-8-7-12-11-15-15-2-3v-11l4-17 10-30h-4l-10-21-12-18-11-14-24-28-11-12-9-11-11-13-13-17-14-21-6-10-8-17-7-20-7-25-9-45-4-21-5-5-8-5 4-22 1-2-6 4-10 14-17 33-14 32-8 21-1 4v7l5 4 10 6 26 17 4 3 1 7v6l10 8 14 10 13 12 8 7 20 18 8 7 10 9 11 9 8 8 8 7 9 9 7 6 7 8 8 8 9 11 11 15 7 11-1 6h-7l-6-10-10-13-16-17-27-27-8-7-7-7-8-7-30-27-11-9-15-13-15-12-16-11-10-8-2-10-5-5-20-12-12-11-3-6v-9l9-25 17-42 2-6-26 13-24 14-15 10-13 10-13 12-9 10-10 14-9 17-10 26-9 34-8 38-3 23-4 13-4 3-5-1-4-3 1-12 6-38 5-26 6-23 7-21 10-22 9-15 9-12 8-10 17-17 14-11 21-14 42-22 12-6h10l8-10 8-11 13-12 4-5-3-11-13-33-5-16v-4l-8 5-11 4-6 1h-11l-14-3-16-8-11-8-9-8-10-13-8-15-7-22-2-10-5-2-20-10-11-7-12-9-13-12-11-15-7-15-3-11v-19l3-11 7-14 10-13 10-10 17-13 18-11 19-10 23-10 24-9 32-10 30-7 22-4 2-17 5-14 7-9 7-6 3-26 5-17 7-16 10-15 11-12 7-7 17-12 25-13 27-9 28-6 17-2z" fill="#050505"/>
<path transform="translate(448,183)" d="m0 0 64 1 53 2 44 3 37 4 21 2 15 3 20 3 30 7 34 10 22 9 26 13 21 13 15 11 10 9 9 9 7 11 4 13v11l-4 13-6 10-9 10-6 7-8 7-16 12-11 6-1-14-4-16-5-11-6-10-9-11-11-9-10-7-26-14-23-9-52-18-16-8-11-7-5-4-19-6-30-6-34-4-33-2h-64l-37 2-39 3-45 5-19 3-11 9-16 9-13 6-20 7-36 12-28 10-16 8-10 7-10 9-7 7-9 14-6 15-2 8-1 19v6l-11-4-17-11-11-9-13-13-9-14-5-12-1-5v-15l4-11 5-9 11-12 11-10 15-10 17-10 24-12 27-11 20-7 8-3 31-7 45-7 30-5 21-2 39-2z" fill="#FEFEFE"/>
<path transform="translate(392,296)" d="m0 0h26l28 4 26 4h15l33-6 9-1h32l21 5 17 8 13 9 10 9 8 8 9 14 6 15 2 13v15l-4 17-8 17-8 10-10 10-13 8-10 4-10 2h-14l-14-3-14-7-11-8-11-5-9-2h-20l-12 3h-7l-13-3h-20l-14 4-11 7-9 6-12 5-8 2-17 1-14-3-9-4-10-6-10-9-8-11-8-16-3-10-1-7v-22l4-16 8-16 9-11 11-10 15-10 19-9 15-4z" fill="#FEFEFE"/>
<path transform="translate(443,443)" d="m0 0 9 1 6 7 11 3h10l13-2 4-2 5-5 2-1h12l10 3 7 5 6 9 4 11 3 7 16 13 9 8 8 10 6 10 5 16v16l-4 13-6 9-10 9-15 8-20 6-28 4-26 1-1-4-3-76-1-2-1 69-1 13-27-1-24-3-18-4-15-6-9-6-7-6-7-11-3-9-1-5v-13l3-12 7-14 8-10 15-15 10-8 5-13 7-11 8-7 10-4z" fill="#FEFEFE"/>
<path transform="translate(451,16)" d="m0 0h39l26 3 23 5 20 6 21 9 14 8 12 9 10 9 8 8 10 15 5 11 4 12 2 11v4l-9-1-35-7-38-6-34-4-36-3-26-1h-53l-29 2-31 4-20 4-21 6-10 3 2-14 5-13 6-11 9-12 14-14 15-11 22-12 20-8 20-6 25-5z" fill="#FEFEFE"/>
<path transform="translate(411,117)" d="m0 0h72l42 3 27 3 32 5 28 6 24 7 16 8 8 7 4 8 4 15v3l-14-1-22-3-33-3-54-3-29-1h-108l-49 2-44 3-21 2h-9l-1-7 3-9 6-8 7-6 13-8 20-8 19-6 22-5 26-3z" fill="#FEFEFE"/>
<path transform="translate(658,605)" d="m0 0h1l-1 14-5 30-6 25-8 23-10 21-14 21-9 12-14 17-9 11-13 15-9 11-12 14-12 16-10 14-10 16-5 9-2-1-10-33-9-16-1-15-2-3v-7l13-23 8-15v-6l-9-17v-3l-4-1 1-4 8-3 7-6 6-2 7-1 16-10 13-11 10-10 11-14 6-8h2v8l-3 8v8l4 3 8-1 6-4 4-6 4-12 12-8 10-8 11-11 10-15 7-16z" fill="#FEFEFE"/>
<path transform="translate(293,607)" d="m0 0 3 4 8 16 7 12 9 11 11 12 8 8 7 8 11 13 1 2 10-1 1-3v-9l-1-6v-8l5 5 7 9 9 10 7 8 12 10 16 9 5-1 12 7 11 7 4 2v2l-5 3-8 13-2 4v7l8 14 13 18 2 3-1 26-2 1 2 8-4 2h-3l-2 10-12 36h-2l-9-17-10-15-12-16-14-18-12-14-11-14-14-17-14-19-11-17-9-16-8-16-7-19-5-19-9-44z" fill="#FEFEFE"/>
<path transform="translate(585,583)" d="m0 0h2l2 5v9l-4 11-6 11-9 12-11 12-7 7-13 9-10 6-20 8-18 4-21 1-18-2-18-5-18-8-15-10-12-11-8-8-10-14-6-13-2-10v-8l1-4 4 2 7 6 14 7 18 6 28 5 23 2h30l32-3 24-5 18-6 15-8 7-6z" fill="#FEFEFE"/>
<path transform="translate(377,346)" d="m0 0h15l9 3 9 6 5 7 4 13v12l-3 12-4 8-9 10-8 5-11 3h-9l-11-3-6-4-5-5-5-8-3-8v-18l4-13 6-8 8-7 9-4z" fill="#050505"/>
<path transform="translate(572,342)" d="m0 0h8l12 3 9 6 6 8 4 11v16l-4 12-6 9-9 7-7 3-5 1h-8l-12-3-9-6-6-8-4-9-1-5v-15l4-12 6-8 8-6 8-3z" fill="#050505"/>
<path transform="translate(505,472)" d="m0 0h10l5 4v6l-6 10-9 7-9 4-10 1-3-3v-8l4-8 9-9z" fill="#050505"/>
<path transform="translate(434,472)" d="m0 0h9l8 3 9 7 6 9 1 10-3 2h-10l-10-5-9-8-4-6-1-8z" fill="#050505"/>
<path transform="translate(473,357)" d="m0 0 5 1v40l-2 10h-2l-1-5-1-25z" fill="#050505"/>
<path transform="translate(384,356)" d="m0 0h8l3 4 1 7-4 4h-7l-5-5 2-7z" fill="#FEFEFE"/>
<path transform="translate(574,349)" d="m0 0 5 1 4 4v6l-4 5-5 1-6-5v-6l4-5z" fill="#FEFEFE"/>
</svg>
