<?xml version="1.0" encoding="UTF-8" standalone="no"?>
<!DOCTYPE svg PUBLIC "-//W3C//DTD SVG 1.1//EN" "http://www.w3.org/Graphics/SVG/1.1/DTD/svg11.dtd">
<svg width="100%" height="100%" viewBox="0 0 3578 4188" version="1.1" xmlns="http://www.w3.org/2000/svg" xmlns:xlink="http://www.w3.org/1999/xlink" xml:space="preserve" xmlns:serif="http://www.serif.com/" style="fill-rule:evenodd;clip-rule:evenodd;stroke-linejoin:round;stroke-miterlimit:2;">
    <g transform="matrix(4.16667,0,0,4.16667,-187.502,-0.005005)">
        <g id="Zapfe.svg">
            <g transform="matrix(1,0,0,1,453,0)">
                <path d="M0,1.5L39,1.5L66,4.5L93,10.5L117,18.5L131,24.5L150,35.5L163,45.5L173,54.5L183,65.5L192,79.5L199,93.5L204,109.5L206,120.5L207,137.5L212,139.5L219,147.5L224,158.5L228,173.5L229,186.5L237,186.5L260,190.5L288,197.5L310,204.5L327,210.5L348,219.5L363,226.5L387,239.5L404,251.5L417,263.5L426,272.5L435,285.5L440,297.5L442,305.5L442,325.5L437,340.5L429,354.5L420,365.5L412,373.5L395,386.5L364,404.5L359,415.5L356,427.5L351,439.5L344,451.5L331,467.5L318,478.5L304,486.5L294,490.5L283,492.5L269,492.5L257,489.5L248,485.5L246,485.5L242,502.5L234,526.5L229,540.5L229,546.5L241,559.5L249,566.5L263,586.5L263,588.5L267,587.5L275,587.5L300,599.5L318,609.5L329,615.5L348,628.5L361,639.5L375,652.5L384,663.5L391,672.5L399,685.5L407,701.5L413,715.5L419,735.5L425,761.5L433,810.5L436,831.5L432,836.5L426,837.5L421,833.5L418,818.5L412,779.5L404,742.5L397,717.5L389,698.5L380,682.5L370,669.5L361,659.5L352,650.5L335,637.5L317,625.5L296,613.5L274,601.5L271,600.5L281,624.5L289,644.5L297,666.5L300,677.5L300,684.5L296,690.5L289,697.5L278,704.5L263,714.5L229,748.5L218,757.5L208,766.5L197,775.5L182,788.5L171,797.5L159,808.5L148,817.5L139,826.5L131,833.5L111,853.5L104,861.5L95,871.5L80,891.5L72,891.5L71,884.5L76,874.5L87,861.5L96,851.5L120,827.5L128,820.5L135,813.5L143,806.5L160,790.5L171,780.5L179,773.5L191,762.5L213,744.5L226,733.5L235,725.5L236,716.5L240,712.5L257,700.5L273,689.5L284,683.5L283,674.5L275,651.5L262,621.5L253,602.5L241,580.5L234,569.5L231,567.5L233,584.5L233,593.5L228,596.5L224,598.5L222,606.5L218,639.5L212,668.5L206,689.5L198,709.5L190,726.5L179,744.5L165,764.5L154,777.5L145,787.5L138,795.5L127,807.5L117,817.5L110,825.5L99,837.5L92,845.5L81,860.5L73,874.5L65,894.5L67,904.5L75,935.5L76,940.5L76,947.5L68,959.5L54,974.5L41,987.5L33,994.5L23,1002.5L20,1002.5L16,997.5L8,990.5L-12,972.5L-30,954.5L-31,952.5L-31,939.5L-26,920.5L-18,897.5L-18,895.5L-22,893.5L-26,882.5L-39,860.5L-55,840.5L-67,826.5L-78,813.5L-89,801.5L-98,790.5L-110,776.5L-120,763.5L-127,753.5L-136,739.5L-143,727.5L-151,710.5L-160,683.5L-166,659.5L-172,628.5L-177,601.5L-182,596.5L-190,591.5L-188,580.5L-186,568.5L-190,570.5L-200,584.5L-211,604.5L-222,627.5L-236,661.5L-241,675.5L-241,682.5L-232,688.5L-221,695.5L-204,706.5L-196,712.5L-195,714.5L-195,721.5L-196,726.5L-191,728.5L-178,738.5L-172,742.5L-160,753.5L-152,760.5L-140,771.5L-132,778.5L-118,790.5L-104,803.5L-96,810.5L-84,821.5L-71,833.5L-59,845.5L-50,856.5L-40,868.5L-26,889.5L-28,894.5L-29,895.5L-36,894.5L-44,880.5L-57,865.5L-71,850.5L-89,832.5L-97,825.5L-104,818.5L-112,811.5L-125,799.5L-133,792.5L-143,783.5L-185,747.5L-203,735.5L-213,727.5L-215,724.5L-217,714.5L-233,704.5L-244,697.5L-253,688.5L-256,682.5L-256,673.5L-251,658.5L-240,630.5L-230,606.5L-227,599.5L-255,614.5L-274,625.5L-290,635.5L-303,645.5L-316,656.5L-323,663.5L-333,676.5L-342,691.5L-351,710.5L-360,737.5L-365,756.5L-371,783.5L-375,807.5L-378,827.5L-382,835.5L-384,837.5L-389,837.5L-394,833.5L-393,820.5L-389,793.5L-382,755.5L-373,723.5L-365,703.5L-357,687.5L-347,671.5L-334,655.5L-324,644.5L-316,637.5L-306,629.5L-294,620.5L-281,612.5L-255,598.5L-225,583.5L-216,583.5L-205,568.5L-198,560.5L-187,550.5L-184,546.5L-186,539.5L-192,523.5L-202,496.5L-205,487.5L-205,482.5L-215,488.5L-224,491.5L-230,492.5L-241,492.5L-255,489.5L-271,481.5L-282,473.5L-292,464.5L-301,452.5L-306,443.5L-310,435.5L-316,416.5L-318,406.5L-337,396.5L-348,390.5L-364,379.5L-379,365.5L-388,353.5L-396,338.5L-400,324.5L-400,304.5L-395,288.5L-386,274.5L-377,264.5L-368,255.5L-356,246.5L-342,237.5L-321,225.5L-294,213.5L-270,204.5L-244,196.5L-218,189.5L-192,184.5L-185,183.5L-183,165.5L-178,152.5L-172,144.5L-166,138.5L-164,138.5L-162,115.5L-158,98.5L-150,79.5L-140,64.5L-129,52.5L-121,44.5L-106,33.5L-90,24.5L-79,19.5L-63,13.5L-45,8.5L-22,3.5L0,1.5ZM-2,17.5L-25,20.5L-51,27.5L-75,36.5L-92,45.5L-107,55.5L-118,64.5L-127,73.5L-134,82.5L-142,95.5L-148,111.5L-150,123.5L-144,122.5L-124,116.5L-107,112.5L-80,108.5L-43,105.5L18,105.5L54,107.5L87,110.5L125,115.5L165,122.5L188,127.5L192,127.5L190,113.5L185,98.5L179,86.5L172,76.5L163,66.5L152,56.5L142,49.5L128,41.5L111,33.5L90,26.5L67,21.5L49,18.5L37,17.5L-2,17.5ZM-36,118.5L-73,121.5L-97,126.5L-123,134.5L-139,141.5L-150,147.5L-160,155.5L-166,163.5L-168,168.5L-169,175.5L-168,179.5L-148,178.5L-113,175.5L-77,173.5L-43,172.5L64,172.5L114,174.5L158,177.5L196,181.5L209,183.5L215,183.5L212,169.5L208,160.5L204,154.5L195,148.5L183,142.5L162,136.5L136,130.5L112,126.5L82,122.5L45,119.5L28,118.5L-36,118.5ZM-72,185.5L-112,187.5L-143,190.5L-196,199.5L-220,203.5L-246,209.5L-258,214.5L-282,223.5L-303,232.5L-330,246.5L-351,260.5L-364,271.5L-372,279.5L-379,290.5L-383,300.5L-384,305.5L-384,317.5L-380,330.5L-374,342.5L-365,353.5L-355,363.5L-339,375.5L-325,383.5L-319,386.5L-317,386.5L-317,374.5L-316,360.5L-312,346.5L-304,331.5L-297,322.5L-291,315.5L-280,306.5L-267,298.5L-252,291.5L-223,281.5L-174,265.5L-155,256.5L-139,246.5L-132,240.5L-121,238.5L-88,234.5L-45,230.5L-17,228.5L5,227.5L74,227.5L105,229.5L125,231.5L150,235.5L172,240.5L188,245.5L202,255.5L218,263.5L243,272.5L281,285.5L297,292.5L320,304.5L334,314.5L344,323.5L354,336.5L361,350.5L365,363.5L367,383.5L376,378.5L387,370.5L396,363.5L404,356.5L411,348.5L419,338.5L425,326.5L427,317.5L427,308.5L425,299.5L419,287.5L408,275.5L401,268.5L386,257.5L367,245.5L353,237.5L330,226.5L313,219.5L282,210.5L258,204.5L237,200.5L225,198.5L208,195.5L183,193.5L156,190.5L108,187.5L56,185.5L-72,185.5ZM-60,297.5L-75,300.5L-91,306.5L-107,315.5L-118,323.5L-133,338.5L-141,351.5L-146,364.5L-148,376.5L-148,395.5L-146,406.5L-142,418.5L-133,434.5L-123,445.5L-112,453.5L-102,458.5L-92,461.5L-68,461.5L-52,456.5L-42,450.5L-28,441.5L-19,438.5L-13,437.5L6,437.5L19,440.5L29,439.5L37,437.5L50,436.5L67,439.5L83,447.5L91,453.5L103,459.5L110,461.5L118,462.5L128,462.5L142,460.5L158,452.5L168,444.5L176,436.5L185,422.5L191,408.5L194,396.5L194,377.5L191,363.5L186,351.5L179,340.5L168,328.5L158,319.5L144,310.5L126,302.5L114,299.5L107,298.5L77,298.5L51,302.5L34,305.5L19,305.5L-7,301.5L-36,297.5L-60,297.5ZM-17,445.5L-29,450.5L-38,459.5L-45,473.5L-48,480.5L-58,489.5L-66,496.5L-76,506.5L-85,520.5L-89,529.5L-91,541.5L-91,552.5L-89,562.5L-83,573.5L-77,580.5L-67,587.5L-54,593.5L-41,597.5L-17,601.5L-4,602.5L20,602.5L21,572.5L22,513.5L23,511.5L26,597.5L27,603.5L50,602.5L75,599.5L94,594.5L109,588.5L121,580.5L129,571.5L134,562.5L136,553.5L136,539.5L133,526.5L127,514.5L115,499.5L107,492.5L93,481.5L90,478.5L87,467.5L82,457.5L75,450.5L65,446.5L61,445.5L50,445.5L45,448.5L42,452.5L36,454.5L28,455.5L15,455.5L5,452.5L0,446.5L-2,445.5L-17,445.5ZM132,585.5L123,593.5L107,601.5L92,606.5L75,610.5L51,613.5L38,614.5L3,614.5L-19,612.5L-47,607.5L-62,602.5L-78,594.5L-87,586.5L-89,586.5L-90,589.5L-90,598.5L-87,610.5L-80,624.5L-70,637.5L-56,651.5L-46,658.5L-33,666.5L-16,673.5L0,677.5L7,678.5L36,678.5L51,675.5L67,670.5L83,662.5L97,652.5L107,643.5L118,631.5L127,618.5L135,602.5L136,597.5L136,589.5L134,585.5L132,585.5ZM205,607.5L200,620.5L192,635.5L184,645.5L171,658.5L156,668.5L153,671.5L149,683.5L143,690.5L137,693.5L130,693.5L127,691.5L127,681.5L130,675.5L130,666.5L127,667.5L115,683.5L104,695.5L96,703.5L81,714.5L70,720.5L61,721.5L53,727.5L48,730.5L43,732.5L43,735.5L47,738.5L56,756.5L56,763.5L45,783.5L35,800.5L35,807.5L37,810.5L38,825.5L47,840.5L55,867.5L57,875.5L60,874.5L67,860.5L77,845.5L89,829.5L100,815.5L108,806.5L117,795.5L141,767.5L152,753.5L167,733.5L178,714.5L187,695.5L195,671.5L200,649.5L204,628.5L206,613.5L206,607.5L205,607.5ZM-160,608.5L-158,619.5L-149,663.5L-144,681.5L-140,693.5L-131,713.5L-124,726.5L-117,738.5L-110,748.5L-97,766.5L-86,779.5L-75,793.5L-64,806.5L-56,816.5L-46,829.5L-33,846.5L-24,860.5L-15,876.5L-13,880.5L-11,880.5L1,844.5L3,834.5L9,833.5L10,831.5L8,824.5L10,823.5L10,814.5L11,797.5L-2,779.5L-11,764.5L-12,762.5L-12,754.5L-3,739.5L3,735.5L2,732.5L-8,727.5L-22,718.5L-30,718.5L-45,709.5L-56,700.5L-64,692.5L-71,684.5L-82,670.5L-83,668.5L-85,668.5L-84,690.5L-88,694.5L-95,694.5L-108,678.5L-123,662.5L-131,654.5L-139,644.5L-148,630.5L-159,608.5L-160,608.5Z" style="fill:rgb(30,41,59);fill-rule:nonzero;"/>
            </g>
            <g transform="matrix(1,0,0,1,376,346)">
                <path d="M0,1.5L16,1.5L25,4.5L32,8.5L39,17.5L42,25.5L43,29.5L43,43.5L40,55.5L34,65.5L29,71.5L19,77.5L9,80.5L-2,80.5L-12,77.5L-21,71.5L-28,61.5L-31,52.5L-32,41.5L-29,25.5L-23,15.5L-19,10.5L-12,5.5L-5,2.5L0,1.5ZM8,11.5L4,19.5L6,24.5L8,26.5L17,26.5L20,22.5L19,15.5L15,11.5L8,11.5Z" style="fill:rgb(30,41,59);fill-rule:nonzero;"/>
            </g>
            <g transform="matrix(1,0,0,1,571,342)">
                <path d="M0,1.5L8,1.5L19,3.5L27,7.5L36,17.5L39,24.5L40,29.5L40,47.5L36,58.5L29,67.5L20,74.5L10,77.5L-2,77.5L-13,73.5L-21,67.5L-28,57.5L-31,46.5L-31,31.5L-28,20.5L-21,10.5L-12,4.5L0,1.5ZM4,8.5L-2,12.5L-3,19.5L1,24.5L6,25.5L11,21.5L12,19.5L12,13.5L6,8.5L4,8.5Z" style="fill:rgb(30,41,59);fill-rule:nonzero;"/>
            </g>
            <g transform="matrix(1,0,0,1,504,472)">
                <path d="M0,1.5L12,1.5L16,4.5L16,11.5L12,19.5L3,27.5L-7,32.5L-11,33.5L-18,33.5L-21,31.5L-21,21.5L-18,15.5L-11,7.5L-5,3.5L0,1.5Z" style="fill:rgb(30,41,59);fill-rule:nonzero;"/>
            </g>
            <g transform="matrix(1,0,0,1,434,472)">
                <path d="M0,1.5L9,1.5L19,5.5L28,13.5L32,19.5L33,23.5L33,31.5L31,32.5L19,32.5L8,26.5L1,19.5L-4,11.5L-4,4.5L0,1.5Z" style="fill:rgb(30,41,59);fill-rule:nonzero;"/>
            </g>
            <g transform="matrix(1,0,0,1,473,357)">
                <path d="M0,1.5L5,2.5L5,44.5L4,52.5L1,52.5L0,49.5L-1,37.5L-1,16.5L0,1.5Z" style="fill:rgb(30,41,59);fill-rule:nonzero;"/>
            </g>
        </g>
    </g>
</svg>
