<?xml version="1.0" encoding="UTF-8"?>
<svg version="1.1" viewBox="0 0 942 1000" width="942" height="1003" xmlns="http://www.w3.org/2000/svg">
<path transform="translate(453)" d="m0 0h39l27 3 27 6 24 8 14 6 19 11 13 10 10 9 10 11 9 14 7 14 5 16 2 11 1 17 5 2 7 8 5 11 4 15 1 13h8l23 4 28 7 22 7 17 6 21 9 15 7 24 13 17 12 13 12 9 9 9 13 5 12 2 8v20l-5 15-8 14-9 11-8 8-17 13-31 18-5 11-3 12-5 12-7 12-13 16-13 11-14 8-10 4-11 2h-14l-12-3-9-4h-2l-4 17-8 24-5 14v6l12 13 8 7 14 20v2l4-1h8l25 12 18 10 11 6 19 13 13 11 14 13 9 11 7 9 8 13 8 16 6 14 6 20 6 26 8 49 3 21-4 5-6 1-5-4-3-15-6-39-8-37-7-25-8-19-9-16-10-13-9-10-9-9-17-13-18-12-21-12-22-12-3-1 10 24 8 20 8 22 3 11v7l-4 6-7 7-11 7-15 10-34 34-11 9-10 9-11 9-15 13-11 9-12 11-11 9-9 9-8 7-20 20-7 8-9 10-15 20h-8l-1-7 5-10 11-13 9-10 24-24 8-7 7-7 8-7 17-16 11-10 8-7 12-11 22-18 13-11 9-8 1-9 4-4 17-12 16-11 11-6-1-9-8-23-13-30-9-19-12-22-7-11-3-2 2 17v9l-5 3-4 2-2 8-4 33-6 29-6 21-8 20-8 17-11 18-14 20-11 13-9 10-7 8-11 12-10 10-7 8-11 12-7 8-11 15-8 14-8 20 2 10 8 31 1 5v7l-8 12-14 15-13 13-8 7-10 8h-3l-4-5-8-7-20-18-18-18-1-2v-13l5-19 8-23v-2l-4-2-4-11-13-22-16-20-12-14-11-13-11-12-9-11-12-14-10-13-7-10-9-14-7-12-8-17-9-27-6-24-6-31-5-27-5-5-8-5 2-11 2-12-4 2-10 14-11 20-11 23-14 34-5 14v7l9 6 11 7 17 11 8 6 1 2v7l-1 5 5 2 13 10 6 4 12 11 8 7 12 11 8 7 14 12 14 13 8 7 12 11 13 12 12 12 9 11 10 12 14 21-2 5-1 1-7-1-8-14-13-15-14-15-18-18-8-7-7-7-8-7-13-12-8-7-10-9-42-36-18-12-10-8-2-3-2-10-16-10-11-7-9-9-3-6v-9l5-15 11-28 10-24 3-7-28 15-19 11-16 10-13 10-13 11-7 7-10 13-9 15-9 19-9 27-5 19-6 27-4 24-3 20-4 8-2 2h-5l-5-4 1-13 4-27 7-38 9-32 8-20 8-16 10-16 13-16 10-11 8-7 10-8 12-9 13-8 26-14 30-15h9l11-15 7-8 11-10 3-4-2-7-6-16-10-27-3-9v-5l-10 6-9 3-6 1h-11l-14-3-16-8-11-8-10-9-9-12-5-9-4-8-6-19-2-10-19-10-11-6-16-11-15-14-9-12-8-15-4-14v-20l5-16 9-14 9-10 9-9 12-9 14-9 21-12 27-12 24-9 26-8 26-7 26-5 7-1 2-18 5-13 6-8 6-6h2l2-23 4-17 8-19 10-15 11-12 8-8 15-11 16-9 11-5 16-6 18-5 23-5zm-2 16-23 3-26 7-24 9-17 9-15 10-11 9-9 9-7 9-8 13-6 16-2 12 6-1 20-6 17-4 27-4 37-3h61l36 2 33 3 38 5 40 7 23 5h4l-2-14-5-15-6-12-7-10-9-10-11-10-10-7-14-8-17-8-21-7-23-5-18-3-12-1zm-34 101-37 3-24 5-26 8-16 7-11 6-10 8-6 8-2 5-1 7 1 4 20-1 35-3 36-2 34-1h107l50 2 44 3 38 4 13 2h6l-3-14-4-9-4-6-9-6-12-6-21-6-26-6-24-4-30-4-37-3-17-1zm-36 67-40 2-31 3-53 9-24 4-26 6-12 5-24 9-21 9-27 14-21 14-13 11-8 8-7 11-4 10-1 5v12l4 13 6 12 9 11 10 10 16 12 14 8 6 3h2v-12l1-14 4-14 8-15 7-9 6-7 11-9 13-8 15-7 29-10 49-16 19-9 16-10 7-6 11-2 33-4 43-4 28-2 22-1h69l31 2 20 2 25 4 22 5 16 5 14 10 16 8 25 9 38 13 16 7 23 12 14 10 10 9 10 13 7 14 4 13 2 20 9-5 11-8 9-7 8-7 7-8 8-10 6-12 2-9v-9l-2-9-6-12-11-12-7-7-15-11-19-12-14-8-23-11-17-7-31-9-24-6-21-4-12-2-17-3-25-2-27-3-48-3-52-2zm12 112-15 3-16 6-16 9-11 8-15 15-8 13-5 13-2 12v19l2 11 4 12 9 16 10 11 11 8 10 5 10 3h24l16-5 10-6 14-9 9-3 6-1h19l13 3 10-1 8-2 13-1 17 3 16 8 8 6 12 6 7 2 8 1h10l14-2 16-8 10-8 8-8 9-14 6-14 3-12v-19l-3-14-5-12-7-11-11-12-10-9-14-9-18-8-12-3-7-1h-30l-26 4-17 3h-15l-26-4-29-4zm43 148-12 5-9 9-7 14-3 7-10 9-8 7-10 10-9 14-4 9-2 12v11l2 10 6 11 6 7 10 7 13 6 13 4 24 4 13 1h24l1-30 1-59 1-2 3 86 1 6 23-1 25-3 19-5 15-6 12-8 8-9 5-9 2-9v-14l-3-13-6-12-12-15-8-7-14-11-3-3-3-11-5-10-7-7-10-4-4-1h-11l-5 3-3 4-6 2-8 1h-13l-10-3-5-6-2-1zm149 140-9 8-16 8-15 5-17 4-24 3-13 1h-35l-22-2-28-5-15-5-16-8-9-8h-2l-1 3v9l3 12 7 14 10 13 14 14 10 7 13 8 17 7 16 4 7 1h29l15-3 16-5 16-8 14-10 10-9 11-12 9-13 8-16 1-5v-8l-2-4zm73 22-5 13-8 15-8 10-13 13-15 10-3 3-4 12-6 7-6 3h-7l-3-2v-10l3-6v-9l-3 1-12 16-11 12-8 8-15 11-11 6-9 1-8 6-5 3-5 2v3l4 3 9 18v7l-11 20-10 17v7l2 3 1 15 9 15 8 27 2 8 3-1 7-14 10-15 12-16 11-14 8-9 9-11 24-28 11-14 15-20 11-19 9-19 8-24 5-22 4-21 2-15v-6zm-365 1 2 11 9 44 5 18 4 12 9 20 7 13 7 12 7 10 13 18 11 13 11 14 11 13 8 10 10 13 13 17 9 14 9 16 2 4h2l12-36 2-10 6-1 1-2-2-7 2-1v-9l1-17-13-18-9-15-1-2v-8l9-15 6-4-1-3-10-5-14-9h-8l-15-9-11-9-8-8-7-8-11-14-1-2h-2l1 22-4 4h-7l-13-16-15-16-8-8-8-10-9-14-11-22z" fill="#FFFFFF"/>
<path transform="translate(376,346)" d="m0 0h16l9 3 7 4 7 9 3 8 1 4v14l-3 12-6 10-5 6-10 6-10 3h-11l-10-3-9-6-7-10-3-9-1-11 3-16 6-10 4-5 7-5 7-3zm8 10-4 8 2 5 2 2h9l3-4-1-7-4-4z" fill="#FFFFFF"/>
<path transform="translate(571,342)" d="m0 0h8l11 2 8 4 9 10 3 7 1 5v18l-4 11-7 9-9 7-10 3h-12l-11-4-8-6-7-10-3-11v-15l3-11 7-10 9-6zm4 7-6 4-1 7 4 5 5 1 5-4 1-2v-6l-6-5z" fill="#FFFFFF"/>
<path transform="translate(504,472)" d="m0 0h12l4 3v7l-4 8-9 8-10 5-4 1h-7l-3-2v-10l3-6 7-8 6-4z" fill="#FFFFFF"/>
<path transform="translate(434,472)" d="m0 0h9l10 4 9 8 4 6 1 4v8l-2 1h-12l-11-6-7-7-5-8v-7z" fill="#FFFFFF"/>
<path transform="translate(473,357)" d="m0 0 5 1v42l-1 8h-3l-1-3-1-12v-21z" fill="#FFFFFF"/>
</svg>
